<svg width="1104" height="337" viewBox="0 0 1104 337" fill="none" xmlns="http://www.w3.org/2000/svg">
<path d="M867.315 158.041C894.482 161.712 881.394 170.889 888.645 134.603C890.095 128.069 911.021 111.147 908.965 126.674C905.624 147.8 916.142 169.824 904.633 190.748C898.153 202.531 900.962 234.797 884.808 229.75C867.535 222.409 825.701 201.191 843.323 175.698C850.097 165.933 854.777 156.5 867.315 158.041ZM856.797 189.683C856.246 195.722 869.15 204.367 877.099 201.76C882.605 199.925 886.662 187.775 883.982 180.433C881.688 174.138 871.133 177.551 865.497 178.157C859.366 179.35 856.797 182.324 856.797 189.683Z" fill="black"/>
<path d="M372.194 142.604C383.611 141.458 394.316 147.295 402.839 156.793C413.259 168.29 391.06 180.696 380.23 184.703C373.422 187.236 349.688 179.768 351.188 188.54C353.892 204.062 381.718 204.673 394.438 204.8C402.231 204.156 398.317 213.393 393.672 214.901C383.916 220.09 373.472 218.08 363.121 218.309C348.413 218.641 345.914 214.925 335.178 208.28C333.061 206.963 326.72 196.676 326.246 194.284C317.919 167.587 345.378 145.299 372.194 142.604ZM376.501 158.362C373.557 159.066 348.361 169.086 358.82 170.155C366.317 168.836 375.142 174.202 381.163 167.499C387.288 161.615 385.944 156.072 376.501 158.362Z" fill="black"/>
<path d="M1103.83 198.86C1103.94 214.204 1100.36 229.291 1087.13 238.046C1084.93 240.193 1081.73 238.964 1079.35 237.771C1076.96 236.578 1075.05 231.273 1075.35 229.291C1077.18 217.104 1088.19 176.946 1072.15 174.835C1066.17 174.835 1065.34 181.222 1064.68 185.847C1061.96 197.374 1053.15 206.551 1052.35 218.884C1051.83 222.996 1049.04 224.501 1045.44 225.639C1034.85 229.475 1030.34 225.896 1031.38 214.626C1032.96 197.887 1033.7 181.149 1031.38 164.41C1031.03 162.042 1030.48 159.381 1033.42 157.949C1039.94 154.058 1042.05 164.19 1046.84 166.007C1050.01 167.31 1051.7 163.162 1054.27 161.73C1057.23 160.041 1060.53 159.031 1063.93 158.774C1067.33 158.517 1070.75 159.019 1073.93 160.244C1093.17 167.457 1105.6 176.67 1103.83 198.86Z" fill="black"/>
<path d="M811.824 164.373C811.732 180.268 816.505 209.634 794.588 215.416C761.638 221.729 732.764 215.874 740.253 174.486C741.593 167.145 770.027 131.024 772.67 149.525C774.855 164.979 758.463 175.532 761.143 191.372C762.978 205.651 787.392 198.438 787.227 185.095C788.659 171.788 792.311 165.97 796.405 154.04C797.268 151.47 806.097 144.588 808.997 146.056C814.688 148.974 811.861 156.885 811.824 164.373Z" fill="black"/>
<path d="M675.64 216.7C649.023 218.94 623.673 194.676 655.338 178.01C663.475 174.796 672.523 174.756 680.687 177.9C686.598 181.387 690.655 174.321 688.507 169.182C683.68 162.593 672.115 167.181 665.342 168.65C632.484 171.77 684.634 123.187 709.397 159.363C715.124 167.75 712.352 181.387 706.753 190.307C702.953 195.538 702.476 201.907 700.604 207.799C698.548 214.333 698.383 214.406 691.683 215.14C686.286 215.617 681.055 216.884 675.64 216.7ZM675.988 201.32C684.707 203.834 682.523 196.089 682.523 190.748C682.523 183.406 668.921 188.105 665.801 189.371C664.244 190.136 663.028 191.451 662.387 193.062C661.745 194.673 661.726 196.465 662.331 198.089C664.167 203.063 671.748 200.108 675.988 201.32Z" fill="black"/>
<path d="M963.831 225.877C937.215 228.117 911.865 203.853 943.529 187.187C951.667 183.973 960.715 183.933 968.879 187.077C974.79 190.564 978.847 183.498 976.699 178.359C971.871 171.77 960.307 176.358 953.534 177.827C920.676 180.947 972.826 132.364 997.497 168.54C1003.22 176.927 1000.45 190.564 994.853 199.484C991.054 204.715 990.576 211.084 988.704 216.976C986.648 223.51 986.483 223.583 979.783 224.317C974.478 224.795 969.246 226.061 963.831 225.877ZM964.18 210.497C972.899 213.011 970.715 205.266 970.715 199.925C970.715 192.583 957.113 197.282 953.993 198.548C952.436 199.313 951.219 200.628 950.578 202.239C949.937 203.85 949.918 205.642 950.523 207.266C952.359 212.24 959.94 209.285 964.18 210.497Z" fill="black"/>
<path d="M631.337 148.087C628.598 163.918 611.284 173.78 603.939 187.499C599.054 196.646 591.521 201.217 584.163 206.82C577.668 211.714 568.175 222.898 561.158 212.858C554.404 203.158 542.828 194.459 538.61 182.979C534.068 175.155 531.405 146.197 537.238 144.281C539.48 143.8 546.85 147.069 547.508 148.812C550.321 156.208 555.083 164.421 558.137 171.988C560.095 176.828 569.622 194.344 575.752 187.717C581.883 181.089 586.383 174.726 592.81 167.52C599.938 159.571 602.884 156.817 608.145 151.156C613.904 144.935 618.844 140.847 626.35 141.418C630.652 141.749 632.146 143.426 631.337 148.087Z" fill="black"/>
<path d="M458.522 146.911C464.965 147.333 474.932 144.708 475.208 152.71C475.425 154.6 474.941 156.503 473.848 158.059C472.756 159.615 471.129 160.716 469.279 161.153C463.074 164.457 428.51 165.54 447.251 175.708C475.373 188.023 462.927 213.113 437.082 214.894C429.262 215.04 415.715 217.243 410.208 211.406C410.208 209.681 411.824 209.039 413.219 208.745C419.478 207.956 443.121 193.309 432.878 187.381C393.706 162.254 428.767 145.387 458.522 146.911Z" fill="black"/>
<path d="M487.703 195.833C488.915 180.544 486.638 160.024 504.719 154.115C510.96 151.802 514.32 154.482 512.484 160.667C507.308 176.341 510.281 192.401 508.923 208.387C508.17 212.939 504.499 215.398 498.919 215.398C487.593 216.132 488.327 203.652 487.703 195.833Z" fill="black"/>
<path d="M502.681 145.103C495.449 145.195 475.459 133.081 484.582 125.024C495.174 117.81 513.952 107.697 523.497 122.968C531.537 135.907 512.942 145.029 502.681 145.103Z" fill="black"/>
<path d="M247.232 263.42C247.99 285.567 238.823 308.979 218.472 319.818C191.668 333.974 159.496 340.268 130.023 331.558C85.484 321.189 60.2649 268.154 74.1104 225.943C84.4983 187.678 124.913 164.137 163.264 164.865C173.364 164.652 183.145 160.744 193.291 162.017C217.357 162.91 220.898 212.59 192.032 202.917C177.125 198.941 167.548 179.793 150.799 186.496C138.766 190.852 125.474 196.654 119.666 208.772C113.236 221.542 115.442 238.266 124.609 249.097C134.307 261.913 148.448 287.438 167.541 276.365C174.441 271.691 179.62 264.685 180.871 256.308C181.523 250.415 171.772 251.529 167.791 249.491C146.159 238.509 163.462 226.769 177.997 222.656C219.822 206.303 247.558 213.779 247.232 263.42Z" fill="black"/>
<path d="M149.472 127.297C148.615 147.785 128.166 156.881 122.077 133.485C119.522 119.768 120.856 104.824 114.752 92.7808C106.715 67.695 76.6582 42.1624 90.0715 13.8803C95.8114 3.64749 109.558 -1.35149 118.809 7.41945C137.181 22.939 139.418 49.7441 140.328 72.9894C140.919 91.5235 149.889 108.861 149.472 127.297Z" fill="#EC3628"/>
<path d="M218.04 33.4823C218.366 57.432 201.98 77.5415 203.489 101.976C204.528 118.76 182.539 167.773 174.244 127.41C172.939 92.8187 163.105 51.8801 180.84 21.3711C193.533 -0.435033 220.39 6.13181 218.04 33.4823Z" fill="#01AC55"/>
<path d="M95.7431 152.413C90.5795 196.934 75.0658 150.716 65.0722 137.355C49.7254 121.775 41.5668 101.332 28.5402 84.0478C17.6139 70.2173 26.4778 45.1315 48.027 48.146C73.284 54.0691 73.5418 91.4402 77.8713 111.012C81.5716 127.622 97.1382 136.764 95.7431 152.413Z" fill="#2D67B0"/>
<path d="M307.687 168.106C286.865 179.619 276.599 187.981 283.65 213.287C286.774 228.64 264.588 228.17 256.354 220.679C251.668 217.157 248.316 212.491 245.443 207.447C240.029 195.866 232.128 184.027 230.763 171.227C229.429 159.949 242.652 153.443 251.107 160.343C268.508 177.392 253.04 176.037 279.859 154.405C288.314 147.345 302.652 138.726 310.477 151.193C315.277 157.919 314.928 163.872 307.687 168.106Z" fill="black"/>
<path d="M69.1442 193.147C63.5029 207.954 41.7262 197.002 30.853 193.843C9.9862 187.64 -12.708 143.619 8.49246 130.22C25.697 119.366 31.9979 152.306 43.5687 161.668C52.7055 172.31 68.9622 177.779 69.1442 193.147Z" fill="#F3A529"/>
<path d="M89.0102 134.689C88.9092 134.683 88.8104 134.657 88.7195 134.613C88.6287 134.568 88.5476 134.506 88.4812 134.43C88.4148 134.354 88.3643 134.265 88.3328 134.169C88.3012 134.073 88.2892 133.972 88.2975 133.871C88.4027 133.862 88.5085 133.879 88.6063 133.919C88.704 133.959 88.7911 134.021 88.8604 134.1C88.9298 134.18 88.9794 134.275 89.0054 134.377C89.0314 134.479 89.0331 134.586 89.0102 134.689Z" fill="#A19394"/>
<path d="M179.423 141.256L179.082 140.854C179.132 140.852 179.183 140.862 179.23 140.882C179.276 140.902 179.318 140.933 179.351 140.972C179.383 141.01 179.407 141.056 179.42 141.105C179.432 141.155 179.433 141.206 179.423 141.256Z" fill="#AFB2B0"/>
<path d="M201.685 114.201C201.685 114.201 201.594 114.276 201.548 114.314C201.529 114.186 201.529 114.056 201.548 113.928C201.601 114.015 201.646 114.107 201.685 114.201Z" fill="#717F73"/>
<path d="M300.358 93.5233C298.916 93.5233 297.801 93.1282 297.011 92.338C296.267 91.5013 295.895 90.3625 295.895 88.9215V48.3421C295.895 46.8546 296.29 45.739 297.08 44.9953C297.871 44.2051 298.986 43.81 300.427 43.81H317.231C322.623 43.81 326.784 45.1115 329.712 47.7146C332.641 50.2711 334.105 53.8735 334.105 58.5218C334.105 61.5432 333.431 64.1462 332.083 66.3309C330.781 68.5156 328.876 70.189 326.365 71.351C323.855 72.5131 320.811 73.0941 317.231 73.0941L317.859 72.0483H320.16C322.066 72.0483 323.716 72.5131 325.11 73.4428C326.551 74.3724 327.806 75.8366 328.876 77.8354L334.105 87.527C334.663 88.5032 334.919 89.4561 334.872 90.3857C334.826 91.3154 334.477 92.0824 333.826 92.6866C333.175 93.2444 332.222 93.5233 330.967 93.5233C329.712 93.5233 328.69 93.2677 327.899 92.7564C327.109 92.1986 326.412 91.3619 325.808 90.2463L318.765 77.2776C317.929 75.6972 316.929 74.6513 315.767 74.14C314.651 73.5822 313.21 73.3033 311.444 73.3033H304.82V88.9215C304.82 90.3625 304.448 91.5013 303.704 92.338C302.961 93.1282 301.845 93.5233 300.358 93.5233ZM304.82 66.6795H315.697C318.905 66.6795 321.322 66.0288 322.949 64.7272C324.622 63.3792 325.459 61.3805 325.459 58.731C325.459 56.1279 324.622 54.1757 322.949 52.8741C321.322 51.5261 318.905 50.8521 315.697 50.8521H304.82V66.6795Z" fill="black"/>
<path d="M343.299 93.5233C342.183 93.5233 341.277 93.2677 340.579 92.7564C339.928 92.245 339.533 91.571 339.394 90.7343C339.254 89.8512 339.417 88.875 339.882 87.8059L358.29 47.0173C358.894 45.6693 359.615 44.7164 360.451 44.1586C361.334 43.5543 362.334 43.2522 363.449 43.2522C364.519 43.2522 365.472 43.5543 366.308 44.1586C367.191 44.7164 367.935 45.6693 368.539 47.0173L387.017 87.8059C387.528 88.875 387.714 89.8512 387.575 90.7343C387.435 91.6175 387.04 92.3148 386.389 92.8261C385.739 93.2909 384.879 93.5233 383.81 93.5233C382.508 93.5233 381.485 93.2212 380.742 92.6169C380.044 91.9661 379.417 90.99 378.859 89.6885L374.327 79.1601L378.092 81.6005H348.667L352.433 79.1601L347.97 89.6885C347.366 91.0365 346.738 92.0126 346.088 92.6169C345.437 93.2212 344.507 93.5233 343.299 93.5233ZM363.31 53.5017L353.548 76.7198L351.735 74.4886H375.024L373.281 76.7198L363.449 53.5017H363.31Z" fill="black"/>
<path d="M399.438 92.9655C397.904 92.9655 396.719 92.5704 395.882 91.7802C395.092 90.9435 394.697 89.7582 394.697 88.2243V48.5512C394.697 47.0173 395.092 45.8552 395.882 45.065C396.719 44.2283 397.904 43.81 399.438 43.81H412.965C421.193 43.81 427.538 45.925 432 50.1549C436.509 54.3848 438.764 60.4508 438.764 68.3529C438.764 72.3039 438.183 75.8134 437.021 78.8812C435.905 81.9026 434.231 84.4592 432 86.5509C429.815 88.6426 427.119 90.2463 423.912 91.3619C420.751 92.431 417.102 92.9655 412.965 92.9655H399.438ZM403.622 85.5748H412.407C415.289 85.5748 417.776 85.2261 419.868 84.5289C422.006 83.7852 423.773 82.7161 425.167 81.3216C426.608 79.8806 427.677 78.091 428.374 75.9528C429.072 73.7681 429.42 71.2348 429.42 68.3529C429.42 62.589 428.003 58.2894 425.167 55.4539C422.332 52.6185 418.078 51.2008 412.407 51.2008H403.622V85.5748Z" fill="black"/>
<path d="M452.271 93.5233C450.83 93.5233 449.714 93.1282 448.924 92.338C448.18 91.5013 447.809 90.3625 447.809 88.9215V47.854C447.809 46.3666 448.18 45.2277 448.924 44.4375C449.714 43.6473 450.83 43.2522 452.271 43.2522C453.712 43.2522 454.804 43.6473 455.548 44.4375C456.338 45.2277 456.733 46.3666 456.733 47.854V88.9215C456.733 90.3625 456.362 91.5013 455.618 92.338C454.874 93.1282 453.758 93.5233 452.271 93.5233Z" fill="black"/>
<path d="M489.521 93.6628C484.779 93.6628 480.619 92.6169 477.04 90.5252C473.507 88.4335 470.764 85.505 468.812 81.7399C466.86 77.9283 465.883 73.466 465.883 68.3529C465.883 64.4948 466.441 61.0319 467.557 57.964C468.672 54.8497 470.253 52.2001 472.298 50.0155C474.39 47.7843 476.877 46.0877 479.759 44.9256C482.687 43.717 485.941 43.1128 489.521 43.1128C494.309 43.1128 498.469 44.1586 502.002 46.2503C505.534 48.2956 508.277 51.2008 510.229 54.9659C512.182 58.731 513.158 63.1701 513.158 68.2832C513.158 72.1412 512.6 75.6275 511.484 78.7418C510.369 81.8561 508.765 84.5289 506.673 86.7601C504.628 88.9912 502.141 90.7111 499.213 91.9197C496.331 93.0817 493.1 93.6628 489.521 93.6628ZM489.521 85.9931C492.542 85.9931 495.099 85.2959 497.191 83.9014C499.329 82.5069 500.956 80.4849 502.071 77.8354C503.233 75.1859 503.815 72.025 503.815 68.3529C503.815 62.775 502.559 58.4521 500.049 55.3842C497.586 52.3163 494.076 50.7824 489.521 50.7824C486.546 50.7824 483.989 51.4797 481.851 52.8741C479.712 54.2221 478.062 56.2209 476.9 58.8704C475.785 61.4735 475.227 64.6343 475.227 68.3529C475.227 73.8844 476.482 78.2072 478.992 81.3216C481.502 84.4359 485.012 85.9931 489.521 85.9931Z" fill="black"/>
</svg>
